<?xml version="1.0" standalone="no"?>
<!DOCTYPE svg PUBLIC "-//W3C//DTD SVG 20010904//EN"
 "http://www.w3.org/TR/2001/REC-SVG-20010904/DTD/svg10.dtd">
<svg version="1.0" xmlns="http://www.w3.org/2000/svg"
 width="568.000000pt" height="568.000000pt" viewBox="0 0 568.000000 568.000000"
 preserveAspectRatio="xMidYMid meet">
<metadata>
Created by potrace 1.14, written by Peter Selinger 2001-2017
</metadata>
<g transform="translate(0.000000,568.000000) scale(0.100000,-0.100000)"
fill="#000000" stroke="none">
<path d="M2793 5612 c-16 -14 -178 -247 -208 -300 -5 -9 -12 -19 -15 -22 -3
-3 -45 -66 -95 -140 -49 -74 -92 -137 -95 -140 -3 -3 -64 -94 -137 -202 -125
-186 -149 -237 -88 -186 110 94 194 175 372 361 14 15 30 27 34 27 9 0 14 -39
9 -70 -1 -8 -10 -34 -21 -57 -10 -23 -19 -46 -19 -50 0 -4 -47 -102 -104 -218
-100 -201 -169 -344 -171 -355 -1 -3 -9 -23 -19 -45 -44 -99 -91 -219 -127
-325 -42 -124 -58 -160 -70 -160 -4 0 -14 17 -23 38 -9 20 -45 91 -80 157 -35
66 -84 158 -108 205 -23 47 -45 87 -48 90 -3 3 -12 19 -20 35 -8 17 -37 72
-64 123 -59 111 -77 118 -126 48 -16 -25 -30 -49 -30 -55 0 -6 -3 -11 -8 -11
-4 0 -12 -9 -17 -20 -6 -12 -64 -106 -130 -211 -66 -104 -125 -197 -130 -207
-50 -85 -299 -435 -338 -474 -9 -9 -17 -21 -17 -26 0 -6 -3 -12 -7 -14 -5 -1
-37 -37 -73 -78 -79 -90 -58 -68 -268 -287 -168 -174 -209 -222 -198 -224 3
-1 12 -2 19 -3 10 -2 180 106 197 124 3 3 21 17 40 30 47 32 229 179 258 208
13 13 40 32 60 43 l37 19 3 -32 c2 -17 -2 -52 -8 -77 -7 -25 -13 -53 -15 -61
-2 -8 -17 -60 -32 -116 -26 -88 -32 -158 -17 -174 9 -8 87 83 273 315 62 77
118 147 126 157 37 45 136 202 172 273 59 117 83 194 84 276 1 43 13 80 22 69
40 -45 146 -199 168 -243 54 -105 79 -259 58 -357 -4 -19 -10 -48 -13 -65 -6
-37 -14 -71 -20 -93 -3 -9 -8 -30 -11 -47 -3 -16 -11 -54 -19 -82 -8 -29 -12
-53 -10 -53 3 0 0 -9 -6 -19 -17 -33 6 -33 37 -1 44 47 84 102 293 410 96 141
250 363 268 385 26 33 33 30 38 -22 3 -21 7 -49 10 -62 l5 -24 18 29 c15 26
53 132 50 144 0 3 5 18 11 34 6 16 13 44 15 62 22 157 33 208 51 242 8 15 14
32 14 39 0 28 84 134 156 198 43 39 100 91 127 118 26 26 50 47 53 47 3 0 3
-18 0 -40 -31 -207 -34 -255 -31 -455 3 -191 5 -222 19 -325 16 -116 23 -153
32 -182 3 -11 7 -30 9 -41 4 -35 17 -81 26 -92 4 -5 7 -12 7 -15 -3 -21 55
-164 100 -249 45 -85 140 -219 207 -295 6 -6 57 -67 114 -136 93 -113 148
-179 191 -230 153 -181 205 -240 212 -240 5 0 6 -4 3 -10 -3 -5 -1 -10 5 -10
6 0 8 13 5 33 -5 31 -14 62 -95 322 -22 72 -40 133 -40 137 -1 4 -8 27 -16 50
-9 24 -17 50 -19 58 -2 8 -24 80 -48 160 -103 330 -164 545 -161 568 1 6 2 16
3 22 2 19 33 -4 113 -88 174 -182 340 -342 348 -337 5 3 7 11 5 18 -2 7 -6 30
-9 52 -5 39 -10 65 -21 115 -4 14 -8 36 -11 50 -26 128 -118 445 -136 468 -6
6 -8 12 -5 12 3 0 -1 17 -10 38 -32 76 -36 87 -38 97 -2 6 -12 31 -23 56 -12
25 -23 58 -26 72 -5 28 4 39 102 129 37 33 39 40 33 70 -6 26 -147 255 -171
278 -3 3 -21 30 -40 60 -19 30 -40 61 -47 68 -7 7 -13 17 -13 22 0 5 -6 15
-13 22 -7 7 -32 45 -57 83 -25 39 -48 72 -52 73 -5 2 -8 8 -8 13 0 11 -42 72
-52 77 -5 2 -8 7 -8 12 0 4 -25 44 -55 89 -30 45 -55 85 -55 90 0 5 -4 11 -8
13 -5 2 -70 96 -145 210 -75 114 -145 211 -155 217 -15 8 -24 6 -39 -7z"/>
<path d="M3980 4463 c-29 -33 -206 -338 -229 -392 -41 -97 -20 -217 50 -290
64 -68 152 -90 223 -56 37 18 39 18 49 -1 6 -10 23 -66 38 -124 29 -113 52
-187 74 -235 8 -17 19 -43 24 -59 12 -29 94 -160 114 -181 7 -6 23 -27 37 -45
14 -19 104 -134 200 -256 96 -121 186 -236 200 -254 75 -98 120 -136 106 -87
-4 12 -8 27 -10 32 -2 6 -6 17 -9 25 -3 8 -17 49 -32 90 -15 41 -41 111 -57
155 -60 159 -101 281 -105 318 -7 51 12 49 84 -11 32 -26 74 -59 93 -72 19
-13 37 -27 40 -30 18 -20 231 -132 325 -169 11 -5 37 -16 58 -25 45 -19 64
-20 70 -3 8 22 -15 51 -150 187 -228 228 -343 359 -518 590 -117 155 -395 553
-395 565 0 3 -5 11 -11 18 -6 7 -52 75 -102 153 -120 184 -134 196 -167 157z"/>
<path d="M1993 2098 c-53 -8 -76 -16 -338 -118 -174 -68 -178 -69 -277 -89
-38 -8 -186 -6 -223 2 -175 41 -252 61 -260 65 -5 4 -17 7 -25 9 -8 1 -31 6
-50 12 -19 6 -91 27 -160 47 -69 19 -156 45 -194 56 -50 15 -71 17 -79 9 -11
-11 -15 -88 -19 -443 -1 -163 0 -166 67 -187 38 -12 52 -17 108 -40 12 -6 42
-17 67 -25 25 -8 97 -33 160 -56 63 -23 123 -43 133 -45 9 -2 22 -7 27 -10 10
-6 134 -42 175 -51 163 -35 363 -7 540 76 63 29 238 93 286 104 73 17 191 13
254 -9 63 -22 161 -64 293 -126 144 -68 228 -91 336 -93 97 -3 149 9 396 84
279 86 335 99 435 104 63 3 193 -19 209 -35 6 -5 16 -9 24 -9 7 0 66 -25 130
-56 157 -76 241 -104 362 -120 51 -8 198 -7 250 1 58 8 235 50 325 77 39 11
77 22 85 23 8 2 16 4 18 5 1 2 7 4 12 5 6 1 12 4 15 5 3 1 8 3 13 4 4 1 34 10
67 20 33 10 65 19 70 20 48 11 98 33 105 47 11 19 6 535 -5 584 -3 17 -10 34
-15 39 -5 5 -102 -19 -232 -59 -314 -95 -413 -117 -533 -118 -140 -2 -228 13
-320 53 -80 35 -152 68 -227 106 -48 24 -96 46 -105 48 -10 1 -25 5 -33 8 -55
20 -100 26 -177 23 -109 -3 -123 -6 -253 -45 -58 -18 -118 -36 -135 -40 -16
-5 -68 -20 -115 -34 -200 -59 -262 -71 -390 -69 -91 0 -160 20 -299 82 -255
116 -278 126 -321 140 -65 20 -125 27 -177 19z"/>
<path d="M344 967 c-3 -9 -4 -123 -2 -254 3 -175 7 -245 17 -263 13 -25 60
-69 73 -70 4 0 76 -33 160 -74 216 -104 300 -133 457 -161 72 -13 276 -14 318
-2 10 3 35 8 57 12 59 8 175 50 299 106 98 45 177 77 192 79 3 0 6 0 8 1 52
16 157 17 217 2 30 -8 125 -48 210 -90 164 -80 253 -117 310 -128 121 -24 244
-26 329 -5 27 6 55 13 62 14 33 6 114 31 249 76 357 120 417 120 668 4 29 -13
55 -24 57 -24 2 0 30 -12 62 -26 124 -56 203 -86 203 -79 0 3 9 1 19 -4 26
-14 99 -23 196 -24 127 -1 177 8 375 68 63 19 141 45 165 55 11 4 76 27 145
51 69 23 131 50 138 58 10 12 12 77 9 291 -4 315 -6 326 -65 315 -21 -4 -46
-9 -57 -11 -11 -1 -36 -8 -55 -14 -19 -6 -45 -13 -56 -16 -12 -2 -77 -22 -145
-44 -261 -85 -296 -93 -418 -95 -144 -3 -156 1 -464 136 -191 84 -247 100
-352 100 -95 0 -139 -12 -398 -110 -242 -91 -284 -101 -422 -97 -123 4 -181
20 -447 129 -218 89 -275 102 -433 100 -75 -1 -154 -14 -235 -38 -38 -11 -307
-86 -320 -90 -8 -1 -42 -10 -75 -18 -118 -31 -183 -40 -275 -40 -135 1 -169
10 -450 118 -141 55 -189 69 -247 73 -60 4 -74 2 -79 -11z"/>
</g>
</svg>
